<svg width="26" height="26" viewBox="0 0 26 26" fill="none" xmlns="http://www.w3.org/2000/svg">
<g clip-path="url(#clip0_1_192)">
<path d="M26 3.07694C25.0455 3.60194 24.0148 3.95174 22.9385 4.10794C24.0402 3.29564 24.883 2.00844 25.2842 0.477441C24.2534 1.22724 23.1111 1.77714 21.8977 2.07084C20.9227 0.795941 19.5365 0.00244141 18.0034 0.00244141C15.0587 0.00244141 12.6725 2.93944 12.6725 6.56364C12.6725 7.07604 12.7182 7.57594 12.8095 8.05714C8.37718 7.78214 4.44761 5.17014 1.81754 1.19594C1.36059 2.16464 1.09661 3.29564 1.09661 4.49534C1.09661 6.76994 2.03586 8.78204 3.46765 9.95684C2.59421 9.92544 1.7718 9.62554 1.05087 9.13814V9.21934C1.05087 12.3999 2.88874 15.0556 5.33088 15.6555C4.884 15.8055 4.41194 15.8867 3.92444 15.8867C3.57929 15.8867 3.24925 15.8429 2.91921 15.7679C3.5996 18.3736 5.56959 20.2733 7.89984 20.3295C6.07212 22.0917 3.77721 23.1415 1.27423 23.1415C0.842788 23.1415 0.421263 23.1102 -9.91821e-05 23.0477C2.3659 24.9161 5.16846 25.9971 8.17918 25.9971C17.9882 25.9971 23.3547 15.9928 23.3547 7.31954C23.3547 7.03214 23.3496 6.75094 23.3395 6.46974C24.3803 5.55134 25.2842 4.39534 26 3.07694Z" fill="white"/>
</g>
<defs>
<clipPath id="clip0_1_192">
<rect width="26" height="26" fill="white"/>
</clipPath>
</defs>
</svg>
